<svg width="124" height="22" viewBox="0 0 124 22" fill="none" xmlns="http://www.w3.org/2000/svg">
<path d="M37.3594 14.1172H42.3359V16H35.0156V4.625H37.3594V14.1172ZM48.4375 16C48.3333 15.7969 48.2578 15.5443 48.2109 15.2422C47.6641 15.8516 46.9531 16.1562 46.0781 16.1562C45.25 16.1562 44.5625 15.9167 44.0156 15.4375C43.474 14.9583 43.2031 14.3542 43.2031 13.625C43.2031 12.7292 43.5339 12.0417 44.1953 11.5625C44.862 11.0833 45.8229 10.8411 47.0781 10.8359H48.1172V10.3516C48.1172 9.96094 48.0156 9.64844 47.8125 9.41406C47.6146 9.17969 47.2995 9.0625 46.8672 9.0625C46.487 9.0625 46.1875 9.15365 45.9688 9.33594C45.7552 9.51823 45.6484 9.76823 45.6484 10.0859H43.3906C43.3906 9.59635 43.5417 9.14323 43.8438 8.72656C44.1458 8.3099 44.5729 7.98438 45.125 7.75C45.6771 7.51042 46.2969 7.39062 46.9844 7.39062C48.026 7.39062 48.8516 7.65365 49.4609 8.17969C50.0755 8.70052 50.3828 9.4349 50.3828 10.3828V14.0469C50.388 14.849 50.5 15.4557 50.7188 15.8672V16H48.4375ZM46.5703 14.4297C46.9036 14.4297 47.2109 14.3568 47.4922 14.2109C47.7734 14.0599 47.9818 13.8594 48.1172 13.6094V12.1562H47.2734C46.1432 12.1562 45.5417 12.5469 45.4688 13.3281L45.4609 13.4609C45.4609 13.7422 45.5599 13.974 45.7578 14.1562C45.9557 14.3385 46.2266 14.4297 46.5703 14.4297ZM59.7344 11.8516C59.7344 13.2057 59.4453 14.263 58.8672 15.0234C58.2891 15.7786 57.4818 16.1562 56.4453 16.1562C55.5286 16.1562 54.7969 15.8047 54.25 15.1016L54.1484 16H52.1172V4H54.375V8.30469C54.8958 7.69531 55.5807 7.39062 56.4297 7.39062C57.4609 7.39062 58.2682 7.77083 58.8516 8.53125C59.4401 9.28646 59.7344 10.3516 59.7344 11.7266V11.8516ZM57.4766 11.6875C57.4766 10.8333 57.3411 10.2109 57.0703 9.82031C56.7995 9.42448 56.3958 9.22656 55.8594 9.22656C55.1406 9.22656 54.6458 9.52083 54.375 10.1094V13.4453C54.651 14.0391 55.151 14.3359 55.875 14.3359C56.6042 14.3359 57.0833 13.9766 57.3125 13.2578C57.4219 12.9141 57.4766 12.3906 57.4766 11.6875ZM65.0234 16.1562C63.7839 16.1562 62.7734 15.776 61.9922 15.0156C61.2161 14.2552 60.8281 13.2422 60.8281 11.9766V11.7578C60.8281 10.9089 60.9922 10.151 61.3203 9.48438C61.6484 8.8125 62.112 8.29688 62.7109 7.9375C63.3151 7.57292 64.0026 7.39062 64.7734 7.39062C65.9297 7.39062 66.8385 7.75521 67.5 8.48438C68.1667 9.21354 68.5 10.2474 68.5 11.5859V12.5078H63.1172C63.1901 13.0599 63.4089 13.5026 63.7734 13.8359C64.1432 14.1693 64.6094 14.3359 65.1719 14.3359C66.0417 14.3359 66.7214 14.0208 67.2109 13.3906L68.3203 14.6328C67.9818 15.112 67.5234 15.487 66.9453 15.7578C66.3672 16.0234 65.7266 16.1562 65.0234 16.1562ZM64.7656 9.21875C64.3177 9.21875 63.9531 9.36979 63.6719 9.67188C63.3958 9.97396 63.2188 10.4062 63.1406 10.9688H66.2812V10.7891C66.2708 10.2891 66.1354 9.90365 65.875 9.63281C65.6146 9.35677 65.2448 9.21875 64.7656 9.21875ZM72.1719 16H69.9062V4H72.1719V16ZM84.0703 13.0156C84.0703 12.5729 83.9141 12.2344 83.6016 12C83.2891 11.7604 82.7266 11.5104 81.9141 11.25C81.1016 10.9844 80.4583 10.724 79.9844 10.4688C78.6927 9.77083 78.0469 8.83073 78.0469 7.64844C78.0469 7.03385 78.2188 6.48698 78.5625 6.00781C78.9115 5.52344 79.4089 5.14583 80.0547 4.875C80.7057 4.60417 81.4349 4.46875 82.2422 4.46875C83.0547 4.46875 83.7786 4.61719 84.4141 4.91406C85.0495 5.20573 85.5417 5.61979 85.8906 6.15625C86.2448 6.69271 86.4219 7.30208 86.4219 7.98438H84.0781C84.0781 7.46354 83.9141 7.0599 83.5859 6.77344C83.2578 6.48177 82.7969 6.33594 82.2031 6.33594C81.6302 6.33594 81.1849 6.45833 80.8672 6.70312C80.5495 6.94271 80.3906 7.26042 80.3906 7.65625C80.3906 8.02604 80.5755 8.33594 80.9453 8.58594C81.3203 8.83594 81.8698 9.07031 82.5938 9.28906C83.9271 9.6901 84.8984 10.1875 85.5078 10.7812C86.1172 11.375 86.4219 12.1146 86.4219 13C86.4219 13.9844 86.0495 14.7578 85.3047 15.3203C84.5599 15.8776 83.5573 16.1562 82.2969 16.1562C81.4219 16.1562 80.625 15.9974 79.9062 15.6797C79.1875 15.3568 78.638 14.9167 78.2578 14.3594C77.8828 13.8021 77.6953 13.1562 77.6953 12.4219H80.0469C80.0469 13.6771 80.7969 14.3047 82.2969 14.3047C82.8542 14.3047 83.2891 14.1927 83.6016 13.9688C83.9141 13.7396 84.0703 13.4219 84.0703 13.0156ZM90.5703 5.46875V7.54688H92.0156V9.20312H90.5703V13.4219C90.5703 13.7344 90.6302 13.9583 90.75 14.0938C90.8698 14.2292 91.099 14.2969 91.4375 14.2969C91.6875 14.2969 91.9089 14.2786 92.1016 14.2422V15.9531C91.6589 16.0885 91.2031 16.1562 90.7344 16.1562C89.151 16.1562 88.3438 15.3568 88.3125 13.7578V9.20312H87.0781V7.54688H88.3125V5.46875H90.5703ZM98.3359 15.1406C97.7786 15.8177 97.0078 16.1562 96.0234 16.1562C95.1172 16.1562 94.4245 15.8958 93.9453 15.375C93.4714 14.8542 93.2292 14.0911 93.2188 13.0859V7.54688H95.4766V13.0078C95.4766 13.888 95.8776 14.3281 96.6797 14.3281C97.4453 14.3281 97.9714 14.0625 98.2578 13.5312V7.54688H100.523V16H98.3984L98.3359 15.1406ZM101.875 11.7109C101.875 10.3932 102.169 9.34375 102.758 8.5625C103.352 7.78125 104.161 7.39062 105.188 7.39062C106.01 7.39062 106.69 7.69792 107.227 8.3125V4H109.492V16H107.453L107.344 15.1016C106.781 15.8047 106.057 16.1562 105.172 16.1562C104.177 16.1562 103.378 15.7656 102.773 14.9844C102.174 14.1979 101.875 13.1068 101.875 11.7109ZM104.133 11.875C104.133 12.6667 104.271 13.2734 104.547 13.6953C104.823 14.1172 105.224 14.3281 105.75 14.3281C106.448 14.3281 106.94 14.0339 107.227 13.4453V10.1094C106.945 9.52083 106.458 9.22656 105.766 9.22656C104.677 9.22656 104.133 10.1094 104.133 11.875ZM113.625 16H111.359V7.54688H113.625V16ZM111.227 5.35938C111.227 5.02083 111.339 4.74219 111.562 4.52344C111.792 4.30469 112.102 4.19531 112.492 4.19531C112.878 4.19531 113.185 4.30469 113.414 4.52344C113.643 4.74219 113.758 5.02083 113.758 5.35938C113.758 5.70312 113.641 5.98438 113.406 6.20312C113.177 6.42188 112.872 6.53125 112.492 6.53125C112.112 6.53125 111.805 6.42188 111.57 6.20312C111.341 5.98438 111.227 5.70312 111.227 5.35938ZM115.141 11.6953C115.141 10.8568 115.302 10.1094 115.625 9.45312C115.948 8.79688 116.411 8.28906 117.016 7.92969C117.625 7.57031 118.331 7.39062 119.133 7.39062C120.273 7.39062 121.203 7.73958 121.922 8.4375C122.646 9.13542 123.049 10.0833 123.133 11.2812L123.148 11.8594C123.148 13.1562 122.786 14.1979 122.062 14.9844C121.339 15.7656 120.367 16.1562 119.148 16.1562C117.93 16.1562 116.956 15.7656 116.227 14.9844C115.503 14.2031 115.141 13.1406 115.141 11.7969V11.6953ZM117.398 11.8594C117.398 12.6615 117.549 13.276 117.852 13.7031C118.154 14.125 118.586 14.3359 119.148 14.3359C119.695 14.3359 120.122 14.1276 120.43 13.7109C120.737 13.2891 120.891 12.6172 120.891 11.6953C120.891 10.9089 120.737 10.2995 120.43 9.86719C120.122 9.4349 119.69 9.21875 119.133 9.21875C118.581 9.21875 118.154 9.4349 117.852 9.86719C117.549 10.2943 117.398 10.9583 117.398 11.8594Z" fill="black"/>
<path fill-rule="evenodd" clip-rule="evenodd" d="M3 3H19V19H3V3Z" fill="black" fill-opacity="0.1"/>
<path fill-rule="evenodd" clip-rule="evenodd" d="M16 1.6C16 1.03995 16 0.759921 16.109 0.546009C16.2049 0.357847 16.3578 0.204867 16.546 0.108993C16.7599 0 17.0399 0 17.6 0H20.4C20.9601 0 21.2401 0 21.454 0.108993C21.6422 0.204867 21.7951 0.357847 21.891 0.546009C22 0.759921 22 1.03995 22 1.6V4.4C22 4.96005 22 5.24008 21.891 5.45399C21.7951 5.64215 21.6422 5.79513 21.454 5.89101C21.2401 6 20.9601 6 20.4 6H20V16H20.4C20.9601 16 21.2401 16 21.454 16.109C21.6422 16.2049 21.7951 16.3578 21.891 16.546C22 16.7599 22 17.0399 22 17.6V20.4C22 20.9601 22 21.2401 21.891 21.454C21.7951 21.6422 21.6422 21.7951 21.454 21.891C21.2401 22 20.9601 22 20.4 22H17.6C17.0399 22 16.7599 22 16.546 21.891C16.3578 21.7951 16.2049 21.6422 16.109 21.454C16 21.2401 16 20.9601 16 20.4V20H6V20.4C6 20.9601 6 21.2401 5.89101 21.454C5.79513 21.6422 5.64215 21.7951 5.45399 21.891C5.24008 22 4.96005 22 4.4 22H1.6C1.03995 22 0.759921 22 0.546009 21.891C0.357847 21.7951 0.204867 21.6422 0.108993 21.454C0 21.2401 0 20.9601 0 20.4V17.6C0 17.0399 0 16.7599 0.108993 16.546C0.204867 16.3578 0.357847 16.2049 0.546009 16.109C0.759921 16 1.03995 16 1.6 16H2V6H1.6C1.03995 6 0.759921 6 0.546009 5.89101C0.357847 5.79513 0.204867 5.64215 0.108993 5.45399C0 5.24008 0 4.96005 0 4.4V1.6C0 1.03995 0 0.759921 0.108993 0.546009C0.204867 0.357847 0.357847 0.204867 0.546009 0.108993C0.759921 0 1.03995 0 1.6 0H4.4C4.96005 0 5.24008 0 5.45399 0.108993C5.64215 0.204867 5.79513 0.357847 5.89101 0.546009C6 0.759921 6 1.03995 6 1.6V2H16V1.6ZM6 4V4.4C6 4.96005 6 5.24008 5.89101 5.45399C5.79513 5.64215 5.64215 5.79513 5.45399 5.89101C5.24008 6 4.96005 6 4.4 6H4V16H4.4C4.96005 16 5.24008 16 5.45399 16.109C5.64215 16.2049 5.79513 16.3578 5.89101 16.546C6 16.7599 6 17.0399 6 17.6V18H16V17.6C16 17.0399 16 16.7599 16.109 16.546C16.2049 16.3578 16.3578 16.2049 16.546 16.109C16.7599 16 17.0399 16 17.6 16H18V6H17.6C17.0399 6 16.7599 6 16.546 5.89101C16.3578 5.79513 16.2049 5.64215 16.109 5.45399C16 5.24008 16 4.96005 16 4.4V4H6Z" fill="black"/>
</svg>
